<svg width="676" height="793" viewBox="0 0 676 793" fill="none" xmlns="http://www.w3.org/2000/svg">
<rect width="676" height="793" fill="#171717"/>
<path d="M265.525 428.151V413.415L325.809 236.849H349.923L410.475 413.683V428.151H265.525ZM291.246 406.985H383.95L350.459 307.314C344.564 289.631 340.277 274.895 337.598 263.106C333.043 280.521 329.024 294.722 325.273 306.243L291.246 406.985Z" fill="#F97E31"/>
<path d="M418 474.113C418 490.244 414.628 504.455 407.885 516.745C400.989 529.036 391.563 538.714 379.609 545.781C367.502 552.695 353.632 556.151 338 556.151C326.199 556.151 315.395 554.154 305.586 550.16C295.778 546.165 287.349 540.481 280.299 533.107C273.096 525.579 267.579 516.822 263.747 506.836C259.916 496.85 258 485.943 258 474.113C258 469.965 258.307 465.664 258.92 461.208C259.533 456.753 260.605 452.068 262.138 447.151L278 447.151C278 459.749 280.529 470.81 285.586 480.335C290.644 489.707 297.693 497.004 306.736 502.227C315.625 507.451 326.046 510.063 338 510.063C349.801 510.063 360.222 507.451 369.264 502.227C378.307 497.004 385.356 489.707 390.414 480.335C395.471 470.81 398 459.749 398 447.151L413.862 447.151C415.241 452.068 416.314 456.753 417.08 461.208C417.693 465.664 418 469.965 418 474.113ZM407.425 467.2C405.126 478.569 400.759 488.554 394.322 497.158C387.732 505.607 379.609 512.213 369.954 516.976C360.146 521.585 349.494 523.889 338 523.889C326.506 523.889 315.931 521.585 306.276 516.976C296.621 512.213 288.498 505.607 281.908 497.158C275.318 488.554 270.874 478.569 268.575 467.2C268.575 478.569 270.414 488.862 274.092 498.079C277.617 507.297 282.598 515.209 289.034 521.815C295.318 528.421 302.674 533.491 311.103 537.025C319.379 540.558 328.345 542.325 338 542.325C347.502 542.325 356.467 540.558 364.897 537.025C373.326 533.491 380.759 528.421 387.195 521.815C393.479 515.209 398.46 507.297 402.138 498.079C405.663 488.862 407.425 478.569 407.425 467.2Z" fill="#F97E31"/>
</svg>
